<svg width="66" height="66" viewBox="0 0 66 66" fill="none" xmlns="http://www.w3.org/2000/svg">
<path d="M23.4125 13.1477C27.9717 10.7155 33.2291 9.92681 38.3013 10.914C43.3735 11.9013 47.9513 14.6043 51.2655 18.5688C54.5797 22.5334 56.4282 27.5179 56.5005 32.6848C56.5728 37.8516 54.8644 42.8859 51.6625 46.9417C48.4605 50.9974 43.9602 53.8275 38.9176 54.9562C33.875 56.085 28.5976 55.4437 23.9721 53.14C19.3467 50.8364 15.6551 47.0109 13.5177 42.3063C11.3803 37.6017 10.9274 32.3048 12.2351 27.3056" stroke="#17C9BC"/>
<path d="M39.3073 33.0007L34.0195 27.7129L28.7137 33.0187L34.0015 38.3065L39.3073 33.0007Z" fill="white"/>
<path d="M11 14L22.5 25.5M22.5 25.5V20.5M22.5 25.5H17.5" stroke="#806EDB"/>
</svg>
