<svg width="53" height="52" viewBox="0 0 53 52" fill="none" xmlns="http://www.w3.org/2000/svg">
<rect x="21.75" y="0.75" width="24.5" height="23.5" rx="5.18968" stroke="#17C9BC" stroke-width="1.5"/>
<rect x="0.75" y="10.75" width="15.0816" height="40.0777" rx="7.5408" stroke="#17C9BC" stroke-width="1.5"/>
<path d="M22 15H21.9397C18.6593 15 16 17.6593 16 20.9397V42.0603C16 45.3407 18.6593 48 21.9397 48H46.0603C49.3407 48 52 45.3407 52 42.0603V20.7032C52 17.5534 49.4466 15 46.2968 15V15" stroke="#17C9BC" stroke-width="1.5"/>
<circle cx="25.6446" cy="31.1409" r="1.60866" fill="#806EDB"/>
<circle cx="25.6446" cy="37.8225" r="1.60866" fill="#806EDB"/>
<circle cx="33.8113" cy="31.1409" r="1.60866" fill="#806EDB"/>
<circle cx="33.8113" cy="37.8225" r="1.60866" fill="#806EDB"/>
<circle cx="41.9798" cy="31.1409" r="1.60866" fill="#806EDB"/>
<circle cx="41.9798" cy="37.8225" r="1.60866" fill="#806EDB"/>
</svg>
