<svg width="46" height="58" viewBox="0 0 46 58" fill="none" xmlns="http://www.w3.org/2000/svg">
<path d="M25.75 1.50024H6.5C5.04131 1.50024 3.64236 2.07971 2.61091 3.11116C1.57946 4.14261 1 5.54155 1 7.00025V51.0003C1 52.4589 1.57946 53.8579 2.61091 54.8893C3.64236 55.9208 5.04131 56.5003 6.5 56.5003H39.5C40.9587 56.5003 42.3576 55.9208 43.3891 54.8893C44.4205 53.8579 45 52.4589 45 51.0003V20.7502L25.75 1.50024Z" stroke="#806EDB" stroke-width="1.5" stroke-linecap="round" stroke-linejoin="round"/>
<path d="M25.75 1.50024V20.7502H45" stroke="#17C9BC" stroke-width="1.5" stroke-linecap="round" stroke-linejoin="round"/>
<path d="M15.754 43H14.62C14.416 43 14.314 42.898 14.314 42.694V31.732C14.314 31.528 14.416 31.426 14.62 31.426H18.832C19.708 31.426 20.392 31.678 20.884 32.182C21.388 32.674 21.64 33.358 21.64 34.234V35.746C21.64 37.126 21.07 37.996 19.93 38.356V38.428L21.928 42.64C22.06 42.88 21.982 43 21.694 43H20.578C20.29 43 20.104 42.898 20.02 42.694L18.094 38.554H16.276C16.132 38.554 16.06 38.614 16.06 38.734V42.694C16.06 42.898 15.958 43 15.754 43ZM16.258 37.114H18.544C19.432 37.114 19.876 36.676 19.876 35.8V34.288C19.876 33.4 19.432 32.956 18.544 32.956H16.258C16.126 32.956 16.06 33.016 16.06 33.136V36.934C16.06 37.054 16.126 37.114 16.258 37.114ZM25.3479 43H24.0159C23.9199 43 23.8479 42.97 23.7999 42.91C23.7639 42.85 23.7699 42.772 23.8179 42.676L26.7879 37.006L23.9439 31.75C23.8959 31.666 23.8899 31.594 23.9259 31.534C23.9739 31.462 24.0459 31.426 24.1419 31.426H25.4199C25.6599 31.426 25.8279 31.528 25.9239 31.732L27.9939 35.908H28.0659L30.1359 31.732C30.2439 31.528 30.3999 31.426 30.6039 31.426H31.9359C32.0319 31.426 32.0979 31.462 32.1339 31.534C32.1819 31.606 32.1879 31.684 32.1519 31.768L29.2719 37.006L32.2419 42.658C32.2899 42.754 32.2959 42.838 32.2599 42.91C32.2239 42.97 32.1519 43 32.0439 43H30.6939C30.5019 43 30.3639 42.904 30.2799 42.712L28.0659 38.32H27.9939L25.7799 42.712C25.6959 42.904 25.5519 43 25.3479 43Z" fill="white"/>
</svg>
