<svg width="51" height="60" viewBox="0 0 51 60" fill="none" xmlns="http://www.w3.org/2000/svg">
<path d="M39.7441 59.1164C45.4083 59.1164 50 54.5247 50 48.8606C50 43.1964 45.4083 38.6047 39.7441 38.6047C34.08 38.6047 29.4883 43.1964 29.4883 48.8606C29.4883 54.5247 34.08 59.1164 39.7441 59.1164Z" stroke="#17C9BC" stroke-width="1.5" stroke-linecap="round" stroke-linejoin="round"/>
<rect width="3.03878" height="3.03878" transform="matrix(0.707107 0.707107 -0.707108 0.707105 39.7469 46.7119)" fill="#806EDB"/>
<path d="M11.2558 42.0234C16.92 42.0234 21.5117 37.4317 21.5117 31.7676C21.5117 26.1034 16.92 21.5117 11.2558 21.5117C5.5917 21.5117 1 26.1034 1 31.7676C1 37.4317 5.5917 42.0234 11.2558 42.0234Z" stroke="#17C9BC" stroke-width="1.5" stroke-linecap="round" stroke-linejoin="round"/>
<rect width="3.03878" height="3.03878" transform="matrix(0.707107 0.707107 -0.707108 0.707105 11.2586 29.6189)" fill="#806EDB"/>
<path d="M39.7441 21.5117C45.4083 21.5117 50 16.92 50 11.2558C50 5.5917 45.4083 1 39.7441 1C34.08 1 29.4883 5.5917 29.4883 11.2558C29.4883 16.92 34.08 21.5117 39.7441 21.5117Z" stroke="#17C9BC" stroke-width="1.5" stroke-linecap="round" stroke-linejoin="round"/>
<rect width="3.03878" height="3.03878" transform="matrix(0.707107 0.707107 -0.707108 0.707105 39.7461 9.10718)" fill="#806EDB"/>
<path d="M19 25.1165L30 16.1165" stroke="#17C9BC" stroke-width="1.5" stroke-linecap="round" stroke-linejoin="round"/>
<path d="M30 44.1165L20.5 37" stroke="#17C9BC" stroke-width="1.5" stroke-linecap="round" stroke-linejoin="round"/>
</svg>
