<svg width="194" height="30" viewBox="0 0 194 30" fill="none" xmlns="http://www.w3.org/2000/svg">
<path d="M13.2088 22.1141L20.3482 15.0143L13.2088 7.91455H4.53125V22.1141H13.2088Z" fill="#17C9BC"/>
<path d="M20.377 7.91455L13.2375 15.0143L20.377 22.1141H29.0545V7.91455H20.377Z" fill="#17C9BC"/>
<path d="M9.65552 7.91472L16.795 15.0145L23.9303 7.91472V2.80664H9.65552V7.91472Z" fill="#806EDB"/>
<path d="M23.9303 22.0856L16.795 14.9858L9.65552 22.0856V27.1937H23.9303V22.0856Z" fill="#806EDB"/>
<path d="M16.795 18.5479L20.377 22.1141H23.9303V18.5642L20.3482 15.0021L23.9303 11.4358V7.91455H20.377L16.795 11.4808L13.2088 7.91455H9.65552V11.4358L13.2376 15.0021L9.65552 18.5642V22.1141H13.2088L16.795 18.5479Z" fill="#0C57A1"/>
<path d="M16.7951 11.4568L13.2415 14.9907L16.7951 18.5246L20.3487 14.9907L16.7951 11.4568Z" fill="black"/>
<path d="M54.8297 22.0978V10.6793H54.7474L49.2654 22.0978H46.9746L41.3486 10.6793H41.2623V22.0978H39.3047V7.90234H42.1999L48.1591 20.0489H48.266L54.0606 7.90234H56.997V22.0978H54.8297Z" fill="white"/>
<path d="M73.9203 20.6669C72.2505 21.767 70.0627 22.0983 67.48 22.0983H61.1836V7.90283H67.4594C70.0627 7.90283 72.2505 8.2341 73.9203 9.3097C75.7709 10.5366 76.4413 12.5447 76.4413 14.9699C76.4413 17.3951 75.7504 19.4441 73.9203 20.6669ZM67.48 9.6696H63.3674V20.3029H67.48C72.2711 20.3029 74.2493 18.9369 74.2493 15.019C74.2493 11.2482 72.3534 9.67369 67.5005 9.67369" fill="white"/>
<path d="M91.6547 16.066C90.1331 17.2929 88.2166 17.436 85.2802 17.436H81.7845V22.0983H79.6172V7.90283H85.6215C88.3934 7.90283 90.2893 7.98463 91.6218 9.06432C92.6212 9.88226 93.0406 11.1542 93.0406 12.5856C93.0406 14.017 92.6664 15.2807 91.6835 16.066H91.6547ZM85.7449 9.64506H81.7845V15.6938H85.7449C89.3722 15.6938 90.8322 15.0721 90.8322 12.6469C90.8322 9.95588 88.9116 9.64506 85.7449 9.64506Z" fill="white"/>
<path d="M110.744 20.9367C109.099 22.0777 106.907 22.3885 104.345 22.3885C101.635 22.3885 99.4881 22.0368 97.8637 20.9162C96.0294 19.632 95.3015 17.5381 95.3015 14.9902C95.3015 12.4423 96.0294 10.3483 97.8637 9.06416C99.4881 7.92312 101.676 7.6123 104.242 7.6123C106.948 7.6123 109.095 7.96402 110.744 9.08461C112.554 10.3688 113.286 12.4627 113.286 15.0106C113.286 17.5585 112.554 19.6525 110.744 20.9367ZM104.325 9.45678C99.5498 9.45678 97.5511 10.8432 97.5511 14.9288C97.5511 18.8673 99.4881 20.5645 104.263 20.5645C109.038 20.5645 111.032 19.1781 111.032 15.072C111.032 11.154 109.095 9.45678 104.325 9.45678Z" fill="white"/>
<path d="M127.433 22.0983L123.181 16.6671C122.741 16.708 122.284 16.708 121.824 16.708H118.636V22.0983H116.469V7.90283H122.14C124.933 7.90283 126.808 8.00507 128.141 8.99888C129.119 9.72685 129.555 10.8025 129.555 12.2339C129.555 13.5998 129.181 14.6386 128.202 15.4034C127.457 15.9712 126.572 16.3299 125.64 16.4422L130.098 22.0983H127.433ZM122.305 9.64506H118.636V15.0312H122.338C125.628 15.0312 127.359 14.6795 127.359 12.2952C127.359 9.84138 125.36 9.64506 122.317 9.64506" fill="white"/>
<path d="M137.867 22.0983V9.72685H131.55V7.90283H146.347V9.72685H140.034V22.0983H137.867Z" fill="white"/>
<path d="M159.3 22.0982L157.322 18.2579H148.838L146.88 22.09H144.523L151.926 7.89453H154.344L161.747 22.09L159.3 22.0982ZM153.131 9.99665H153.049L149.693 16.5402H156.466L153.131 9.99665Z" fill="white"/>
<path d="M164.145 22.0983V7.90283H166.312V20.2334H175.586V22.0983H164.145Z" fill="white"/>
<path d="M187.302 21.7055C186.113 22.2658 184.509 22.3885 183.07 22.3885C181.363 22.3885 179.632 22.3067 177.724 22.1799V20.2537C179.558 20.4418 181.454 20.544 182.955 20.544C183.955 20.5719 184.954 20.4813 185.932 20.2741C186.377 20.1904 186.773 19.944 187.044 19.5835C187.314 19.223 187.438 18.7748 187.392 18.3274C187.392 17.3541 187.039 16.7529 185.912 16.3971C184.793 16.1054 183.659 15.8774 182.515 15.7141C179.307 15.1783 177.703 14.3072 177.703 11.7348C177.703 10.3483 178.18 8.99873 179.809 8.2544C180.973 7.71455 182.556 7.6123 183.831 7.6123C185.328 7.6123 186.891 7.6941 188.581 7.84133V9.66944C186.989 9.48631 185.388 9.38938 183.786 9.37907C182.91 9.36232 182.036 9.45298 181.182 9.649C180.056 9.98027 179.764 10.6224 179.764 11.473C179.764 12.4055 180.101 12.9821 181.182 13.3175C182.264 13.6011 183.363 13.8156 184.472 13.9596C187.763 14.4749 189.494 15.3869 189.494 18.1025C189.494 19.5339 188.992 20.9203 187.327 21.6892" fill="white"/>
</svg>
